/* XPM */
static char * fxcv_xpm[] = {
"32 32 5 1",
" 	c None",
".	c #000000",
"+	c #4372E5",
"@	c #F03830",
"#	c #D5D812",
"................................",
"................................",
"................................",
"...+++++++++++++++..............",
"...+++++++++++++++..............",
"...+++++++++++++++..............",
"...+++++++++++++++..............",
"...+++++++++++++++..............",
"...+++++++++++++++..............",
"...+++++++++++++++..............",
"...+++++++++++++++..............",
"...++++++++........@@@@@........",
"...++++++++......@@@@@@@@.......",
"...++++++++.....@@@@@@@@@@......",
"...++++++++....@@@@@@@@@@@@.....",
"...#################@@@@@@@@....",
"...+###############@@@@@@@@@@...",
"...++#############@@@@@@@@@@@...",
"...+++###########@@@@..@@@@@@...",
"...++++#########@@@@@..@@@@@@...",
"........#######@@@@@@@@@@@@@@...",
".........#####.@@@@@@@@@@@@@@...",
"...........#....@@@@@@@@@@@@....",
".........#####...@@@@@@@@@@.....",
"........#######...@@@@@@@@......",
".......#########...@@@@@@.......",
"......###########...............",
".....#############..............",
"....###############.............",
"...#################............",
"................................",
"................................"};
